<svg width="24" height="24" viewBox="0 0 24 24" fill="none" xmlns="http://www.w3.org/2000/svg">
<mask id="path-1-inside-1_359_11712" fill="white">
<path d="M9.57 18.82C9.38 18.82 9.19 18.75 9.04 18.6L2.97 12.53C2.68 12.24 2.68 11.76 2.97 11.47L9.04 5.4C9.33 5.11 9.81 5.11 10.1 5.4C10.39 5.69 10.39 6.17 10.1 6.46L4.56 12L10.1 17.54C10.39 17.83 10.39 18.31 10.1 18.6C9.96 18.75 9.76 18.82 9.57 18.82Z"/>
</mask>
<path d="M9.57 18.82C9.38 18.82 9.19 18.75 9.04 18.6L2.97 12.53C2.68 12.24 2.68 11.76 2.97 11.47L9.04 5.4C9.33 5.11 9.81 5.11 10.1 5.4C10.39 5.69 10.39 6.17 10.1 6.46L4.56 12L10.1 17.54C10.39 17.83 10.39 18.31 10.1 18.6C9.96 18.75 9.76 18.82 9.57 18.82Z" fill="#F49C11"/>
<path d="M9.04 18.6L7.97934 19.6607L9.04 18.6ZM2.97 12.53L4.03066 11.4693V11.4693L2.97 12.53ZM2.97 11.47L4.03066 12.5307L2.97 11.47ZM9.04 5.4L7.97934 4.33933L9.04 5.4ZM10.1 6.46L11.1607 7.52066L10.1 6.46ZM4.56 12L3.49934 10.9393L2.43868 12L3.49934 13.0607L4.56 12ZM10.1 17.54L9.03934 18.6007L10.1 17.54ZM10.1 18.6L9.03934 17.5393L9.02106 17.5576L9.00342 17.5765L10.1 18.6ZM9.57 17.32C9.75636 17.32 9.95453 17.3932 10.1007 17.5393L7.97934 19.6607C8.42547 20.1068 9.00365 20.32 9.57 20.32V17.32ZM10.1007 17.5393L4.03066 11.4693L1.90934 13.5907L7.97934 19.6607L10.1007 17.5393ZM4.03066 11.4693C4.32645 11.7651 4.32645 12.2349 4.03066 12.5307L1.90934 10.4093C1.03356 11.2851 1.03356 12.7149 1.90934 13.5907L4.03066 11.4693ZM4.03066 12.5307L10.1007 6.46066L7.97934 4.33933L1.90934 10.4093L4.03066 12.5307ZM10.1007 6.46066C9.80488 6.75644 9.33513 6.75644 9.03934 6.46066L11.1607 4.33933C10.2849 3.46355 8.85513 3.46355 7.97934 4.33933L10.1007 6.46066ZM9.03934 6.46066C8.74356 6.16487 8.74356 5.69512 9.03934 5.39933L11.1607 7.52066C12.0364 6.64487 12.0364 5.21512 11.1607 4.33933L9.03934 6.46066ZM9.03934 5.39933L3.49934 10.9393L5.62066 13.0607L11.1607 7.52066L9.03934 5.39933ZM3.49934 13.0607L9.03934 18.6007L11.1607 16.4793L5.62066 10.9393L3.49934 13.0607ZM9.03934 18.6007C8.74356 18.3049 8.74356 17.8351 9.03934 17.5393L11.1607 19.6607C12.0364 18.7849 12.0364 17.3551 11.1607 16.4793L9.03934 18.6007ZM9.00342 17.5765C9.19268 17.3737 9.41609 17.32 9.57 17.32V20.32C10.1039 20.32 10.7273 20.1262 11.1966 19.6235L9.00342 17.5765Z" fill="#F49C11" mask="url(#path-1-inside-1_359_11712)"/>
<mask id="path-3-inside-2_359_11712" fill="white">
<path d="M20.5 12.75H3.67C3.26 12.75 2.92 12.41 2.92 12C2.92 11.59 3.26 11.25 3.67 11.25H20.5C20.91 11.25 21.25 11.59 21.25 12C21.25 12.41 20.91 12.75 20.5 12.75Z"/>
</mask>
<path d="M20.5 12.75H3.67C3.26 12.75 2.92 12.41 2.92 12C2.92 11.59 3.26 11.25 3.67 11.25H20.5C20.91 11.25 21.25 11.59 21.25 12C21.25 12.41 20.91 12.75 20.5 12.75Z" fill="#F49C11"/>
<path d="M20.5 11.25H3.67V14.25H20.5V11.25ZM3.67 11.25C4.08843 11.25 4.42 11.5816 4.42 12H1.42C1.42 13.2384 2.43157 14.25 3.67 14.25V11.25ZM4.42 12C4.42 12.4184 4.08843 12.75 3.67 12.75V9.75C2.43157 9.75 1.42 10.7616 1.42 12H4.42ZM3.67 12.75H20.5V9.75H3.67V12.75ZM20.5 12.75C20.0816 12.75 19.75 12.4184 19.75 12H22.75C22.75 10.7616 21.7384 9.75 20.5 9.75V12.75ZM19.75 12C19.75 11.5816 20.0816 11.25 20.5 11.25V14.25C21.7384 14.25 22.75 13.2384 22.75 12H19.75Z" fill="#F49C11" mask="url(#path-3-inside-2_359_11712)"/>
</svg>
